<svg width="1360" height="80" viewBox="0 0 1360 80" fill="none" xmlns="http://www.w3.org/2000/svg">
<rect width="1360" height="80" rx="12" fill="#6CA6C7"/>
<mask id="mask0_52703_63" style="mask-type:alpha" maskUnits="userSpaceOnUse" x="0" y="0" width="1360" height="80">
<rect width="1360" height="80" rx="12" fill="#00A3FF"/>
</mask>
<g mask="url(#mask0_52703_63)">
<path d="M1219.5 59.5L1209 75.5" stroke="url(#paint0_linear_52703_63)" stroke-opacity="0.3" stroke-width="2" stroke-linecap="round"/>
<path d="M1247 49L1236.5 65" stroke="url(#paint1_linear_52703_63)" stroke-opacity="0.3" stroke-width="2" stroke-linecap="round"/>
<path d="M1266 60L1255.5 76" stroke="url(#paint2_linear_52703_63)" stroke-opacity="0.3" stroke-width="2" stroke-linecap="round"/>
<path d="M1294 49L1283.5 65" stroke="url(#paint3_linear_52703_63)" stroke-opacity="0.3" stroke-width="2" stroke-linecap="round"/>
<path d="M1318 61L1307.5 77" stroke="url(#paint4_linear_52703_63)" stroke-opacity="0.3" stroke-width="2" stroke-linecap="round"/>
<path d="M1346 48L1335.5 64" stroke="url(#paint5_linear_52703_63)" stroke-opacity="0.3" stroke-width="2" stroke-linecap="round"/>
<path d="M1269 47L1276.5 36H1287L1282.5 42H1291.5L1270 60.5L1278 47H1269Z" fill="url(#paint6_linear_52703_63)"/>
<path d="M1210.5 50.5L1200 66.5" stroke="url(#paint7_linear_52703_63)" stroke-opacity="0.3" stroke-width="2" stroke-linecap="round"/>
<path d="M1218 74L1207.5 90" stroke="white" stroke-opacity="0.3" stroke-width="2" stroke-linecap="round"/>
<path d="M1238 40L1227.5 56" stroke="url(#paint8_linear_52703_63)" stroke-opacity="0.3" stroke-width="2" stroke-linecap="round"/>
<path d="M1257 51L1246.5 67" stroke="url(#paint9_linear_52703_63)" stroke-opacity="0.3" stroke-width="2" stroke-linecap="round"/>
<path d="M1264.5 74.5L1254 90.5" stroke="white" stroke-opacity="0.3" stroke-width="2" stroke-linecap="round"/>
<path d="M1285 40L1274.5 56" stroke="url(#paint10_linear_52703_63)" stroke-opacity="0.3" stroke-width="2" stroke-linecap="round"/>
<path d="M1309 52L1298.5 68" stroke="url(#paint11_linear_52703_63)" stroke-opacity="0.3" stroke-width="2" stroke-linecap="round"/>
<path d="M1316.5 75.5L1306 91.5" stroke="white" stroke-opacity="0.3" stroke-width="2" stroke-linecap="round"/>
<path d="M1337 39L1326.5 55" stroke="url(#paint12_linear_52703_63)" stroke-opacity="0.3" stroke-width="2" stroke-linecap="round"/>
<path d="M1286.73 -58C1302.81 -57.9999 1317.09 -50.2472 1326.02 -38.2744C1329.89 -39.5119 1334 -40.1816 1338.27 -40.1816C1360.41 -40.1816 1378.36 -22.2324 1378.36 -0.0908203C1378.36 21.7047 1360.97 39.4384 1339.31 39.9873L1338.27 40H1235.18V39.7393C1221.52 37.8768 1211 26.1686 1211 12C1211 -3.20401 1223.12 -15.5775 1238.22 -15.9893C1241.61 -39.7405 1262.04 -58 1286.73 -58Z" fill="#B4B4B4"/>
</g>
<defs>
<linearGradient id="paint0_linear_52703_63" x1="1214.25" y1="59.5" x2="1214.25" y2="75.5" gradientUnits="userSpaceOnUse">
<stop stop-color="white" stop-opacity="0"/>
<stop offset="0.895833" stop-color="white"/>
</linearGradient>
<linearGradient id="paint1_linear_52703_63" x1="1241.75" y1="49" x2="1241.75" y2="65" gradientUnits="userSpaceOnUse">
<stop stop-color="white" stop-opacity="0"/>
<stop offset="0.895833" stop-color="white"/>
</linearGradient>
<linearGradient id="paint2_linear_52703_63" x1="1260.75" y1="60" x2="1260.75" y2="76" gradientUnits="userSpaceOnUse">
<stop stop-color="white" stop-opacity="0"/>
<stop offset="0.895833" stop-color="white"/>
</linearGradient>
<linearGradient id="paint3_linear_52703_63" x1="1288.75" y1="49" x2="1288.75" y2="65" gradientUnits="userSpaceOnUse">
<stop stop-color="white" stop-opacity="0"/>
<stop offset="0.895833" stop-color="white"/>
</linearGradient>
<linearGradient id="paint4_linear_52703_63" x1="1312.75" y1="61" x2="1312.75" y2="77" gradientUnits="userSpaceOnUse">
<stop stop-color="white" stop-opacity="0"/>
<stop offset="0.895833" stop-color="white"/>
</linearGradient>
<linearGradient id="paint5_linear_52703_63" x1="1340.75" y1="48" x2="1340.75" y2="64" gradientUnits="userSpaceOnUse">
<stop stop-color="white" stop-opacity="0"/>
<stop offset="0.895833" stop-color="white"/>
</linearGradient>
<linearGradient id="paint6_linear_52703_63" x1="1280" y1="36" x2="1280" y2="43" gradientUnits="userSpaceOnUse">
<stop stop-color="#FFE600" stop-opacity="0"/>
<stop offset="1" stop-color="#FFE600"/>
</linearGradient>
<linearGradient id="paint7_linear_52703_63" x1="1205.25" y1="50.5" x2="1205.25" y2="66.5" gradientUnits="userSpaceOnUse">
<stop stop-color="white" stop-opacity="0"/>
<stop offset="0.895833" stop-color="white"/>
</linearGradient>
<linearGradient id="paint8_linear_52703_63" x1="1232.75" y1="40" x2="1232.75" y2="56" gradientUnits="userSpaceOnUse">
<stop stop-color="white" stop-opacity="0"/>
<stop offset="0.895833" stop-color="white"/>
</linearGradient>
<linearGradient id="paint9_linear_52703_63" x1="1251.75" y1="51" x2="1251.75" y2="67" gradientUnits="userSpaceOnUse">
<stop stop-color="white" stop-opacity="0"/>
<stop offset="0.895833" stop-color="white"/>
</linearGradient>
<linearGradient id="paint10_linear_52703_63" x1="1279.75" y1="40" x2="1279.75" y2="56" gradientUnits="userSpaceOnUse">
<stop stop-color="white" stop-opacity="0"/>
<stop offset="0.895833" stop-color="white"/>
</linearGradient>
<linearGradient id="paint11_linear_52703_63" x1="1303.75" y1="52" x2="1303.75" y2="68" gradientUnits="userSpaceOnUse">
<stop stop-color="white" stop-opacity="0"/>
<stop offset="0.895833" stop-color="white"/>
</linearGradient>
<linearGradient id="paint12_linear_52703_63" x1="1331.75" y1="39" x2="1331.75" y2="55" gradientUnits="userSpaceOnUse">
<stop stop-color="white" stop-opacity="0"/>
<stop offset="0.895833" stop-color="white"/>
</linearGradient>
</defs>
</svg>
