<svg width="1360" height="80" viewBox="0 0 1360 80" fill="none" xmlns="http://www.w3.org/2000/svg">
<rect width="1360" height="80" rx="12" fill="#286897"/>
<mask id="mask0_52703_66" style="mask-type:alpha" maskUnits="userSpaceOnUse" x="0" y="0" width="1360" height="80">
<rect width="1360" height="80" rx="12" fill="#286897"/>
</mask>
<g mask="url(#mask0_52703_66)">
<g filter="url(#filter0_f_52703_66)">
<path d="M1291.73 -42C1307.81 -41.9999 1322.09 -34.2472 1331.02 -22.2744C1334.89 -23.5119 1339 -24.1816 1343.27 -24.1816C1365.41 -24.1816 1383.36 -6.23242 1383.36 15.9092C1383.36 37.7047 1365.97 55.4384 1344.31 55.9873L1343.27 56H1240.18V55.7393C1226.52 53.8768 1216 42.1686 1216 28C1216 12.796 1228.12 0.422462 1243.22 0.0107422C1246.61 -23.7405 1267.04 -42 1291.73 -42Z" fill="#558CB4" fill-opacity="0.6"/>
</g>
<g filter="url(#filter1_f_52703_66)">
<path d="M1240.73 12C1256.81 12.0001 1271.09 19.7528 1280.02 31.7256C1283.89 30.4881 1288 29.8184 1292.27 29.8184C1314.41 29.8184 1332.36 47.7676 1332.36 69.9092C1332.36 91.7047 1314.97 109.438 1293.31 109.987L1292.27 110H1189.18V109.739C1175.52 107.877 1165 96.1686 1165 82C1165 66.796 1177.12 54.4225 1192.22 54.0107C1195.61 30.2595 1216.04 12 1240.73 12Z" fill="#558CB4" fill-opacity="0.6"/>
</g>
</g>
<defs>
<filter id="filter0_f_52703_66" x="1212" y="-46" width="175.363" height="106" filterUnits="userSpaceOnUse" color-interpolation-filters="sRGB">
<feFlood flood-opacity="0" result="BackgroundImageFix"/>
<feBlend mode="normal" in="SourceGraphic" in2="BackgroundImageFix" result="shape"/>
<feGaussianBlur stdDeviation="2" result="effect1_foregroundBlur_52703_66"/>
</filter>
<filter id="filter1_f_52703_66" x="1161" y="8" width="175.363" height="106" filterUnits="userSpaceOnUse" color-interpolation-filters="sRGB">
<feFlood flood-opacity="0" result="BackgroundImageFix"/>
<feBlend mode="normal" in="SourceGraphic" in2="BackgroundImageFix" result="shape"/>
<feGaussianBlur stdDeviation="2" result="effect1_foregroundBlur_52703_66"/>
</filter>
</defs>
</svg>
