<svg width="1360" height="80" viewBox="0 0 1360 80" fill="none" xmlns="http://www.w3.org/2000/svg">
<rect width="1360" height="80" rx="12" fill="#286897"/>
<mask id="mask0_52703_67" style="mask-type:alpha" maskUnits="userSpaceOnUse" x="0" y="0" width="1360" height="80">
<rect width="1360" height="80" rx="12" fill="#286897"/>
</mask>
<g mask="url(#mask0_52703_67)">
<path d="M1219.5 59.5L1209 75.5" stroke="url(#paint0_linear_52703_67)" stroke-opacity="0.3" stroke-width="2" stroke-linecap="round"/>
<path d="M1247 49L1236.5 65" stroke="url(#paint1_linear_52703_67)" stroke-opacity="0.3" stroke-width="2" stroke-linecap="round"/>
<path d="M1266 60L1255.5 76" stroke="url(#paint2_linear_52703_67)" stroke-opacity="0.3" stroke-width="2" stroke-linecap="round"/>
<path d="M1294 49L1283.5 65" stroke="url(#paint3_linear_52703_67)" stroke-opacity="0.3" stroke-width="2" stroke-linecap="round"/>
<path d="M1318 61L1307.5 77" stroke="url(#paint4_linear_52703_67)" stroke-opacity="0.3" stroke-width="2" stroke-linecap="round"/>
<path d="M1346 48L1335.5 64" stroke="url(#paint5_linear_52703_67)" stroke-opacity="0.3" stroke-width="2" stroke-linecap="round"/>
<path d="M1286.73 -58C1302.81 -57.9999 1317.09 -50.2472 1326.02 -38.2744C1329.89 -39.5119 1334 -40.1816 1338.27 -40.1816C1360.41 -40.1816 1378.36 -22.2324 1378.36 -0.0908203C1378.36 21.7047 1360.97 39.4384 1339.31 39.9873L1338.27 40H1235.18V39.7393C1221.52 37.8768 1211 26.1686 1211 12C1211 -3.20401 1223.12 -15.5775 1238.22 -15.9893C1241.61 -39.7405 1262.04 -58 1286.73 -58Z" fill="#1F4F72"/>
</g>
<defs>
<linearGradient id="paint0_linear_52703_67" x1="1214.25" y1="59.5" x2="1214.25" y2="75.5" gradientUnits="userSpaceOnUse">
<stop stop-color="white" stop-opacity="0"/>
<stop offset="0.895833" stop-color="white"/>
</linearGradient>
<linearGradient id="paint1_linear_52703_67" x1="1241.75" y1="49" x2="1241.75" y2="65" gradientUnits="userSpaceOnUse">
<stop stop-color="white" stop-opacity="0"/>
<stop offset="0.895833" stop-color="white"/>
</linearGradient>
<linearGradient id="paint2_linear_52703_67" x1="1260.75" y1="60" x2="1260.75" y2="76" gradientUnits="userSpaceOnUse">
<stop stop-color="white" stop-opacity="0"/>
<stop offset="0.895833" stop-color="white"/>
</linearGradient>
<linearGradient id="paint3_linear_52703_67" x1="1288.75" y1="49" x2="1288.75" y2="65" gradientUnits="userSpaceOnUse">
<stop stop-color="white" stop-opacity="0"/>
<stop offset="0.895833" stop-color="white"/>
</linearGradient>
<linearGradient id="paint4_linear_52703_67" x1="1312.75" y1="61" x2="1312.75" y2="77" gradientUnits="userSpaceOnUse">
<stop stop-color="white" stop-opacity="0"/>
<stop offset="0.895833" stop-color="white"/>
</linearGradient>
<linearGradient id="paint5_linear_52703_67" x1="1340.75" y1="48" x2="1340.75" y2="64" gradientUnits="userSpaceOnUse">
<stop stop-color="white" stop-opacity="0"/>
<stop offset="0.895833" stop-color="white"/>
</linearGradient>
</defs>
</svg>
