<svg width="1360" height="80" viewBox="0 0 1360 80" fill="none" xmlns="http://www.w3.org/2000/svg">
<rect width="1360" height="80" rx="12" fill="#286897"/>
<mask id="mask0_52703_64" style="mask-type:alpha" maskUnits="userSpaceOnUse" x="0" y="0" width="1360" height="80">
<rect width="1360" height="80" rx="12" fill="#286897"/>
</mask>
<g mask="url(#mask0_52703_64)">
<path d="M1249.25 39C1249.8 39 1250.25 39.4477 1250.25 40V43.835L1252.96 41.123C1253.35 40.7326 1253.99 40.7325 1254.38 41.123C1254.77 41.5136 1254.77 42.1476 1254.38 42.5381L1251.67 45.25H1255.5C1256.05 45.25 1256.5 45.6977 1256.5 46.25C1256.5 46.8023 1256.05 47.25 1255.5 47.25H1251.67L1254.38 49.9619C1254.77 50.3524 1254.77 50.9864 1254.38 51.377C1253.99 51.7675 1253.35 51.7674 1252.96 51.377L1250.25 48.665V52.5C1250.25 53.0523 1249.8 53.5 1249.25 53.5C1248.7 53.5 1248.25 53.0523 1248.25 52.5V48.665L1245.54 51.377C1245.15 51.7675 1244.51 51.7675 1244.12 51.377C1243.73 50.9864 1243.73 50.3524 1244.12 49.9619L1246.83 47.25H1243C1242.45 47.25 1242 46.8023 1242 46.25C1242 45.6977 1242.45 45.25 1243 45.25H1246.83L1244.12 42.5381C1243.73 42.1476 1243.73 41.5136 1244.12 41.123C1244.51 40.7325 1245.15 40.7325 1245.54 41.123L1248.25 43.835V40C1248.25 39.4477 1248.7 39 1249.25 39Z" fill="url(#paint0_linear_52703_64)"/>
<path d="M1233.25 63C1233.8 63 1234.25 63.4477 1234.25 64V67.835L1236.96 65.123C1237.35 64.7326 1237.99 64.7325 1238.38 65.123C1238.77 65.5136 1238.77 66.1476 1238.38 66.5381L1235.67 69.25H1239.5C1240.05 69.25 1240.5 69.6977 1240.5 70.25C1240.5 70.8023 1240.05 71.25 1239.5 71.25H1235.67L1238.38 73.9619C1238.77 74.3524 1238.77 74.9864 1238.38 75.377C1237.99 75.7675 1237.35 75.7674 1236.96 75.377L1234.25 72.665V76.5C1234.25 77.0523 1233.8 77.5 1233.25 77.5C1232.7 77.5 1232.25 77.0523 1232.25 76.5V72.665L1229.54 75.377C1229.15 75.7675 1228.51 75.7675 1228.12 75.377C1227.73 74.9864 1227.73 74.3524 1228.12 73.9619L1230.83 71.25H1227C1226.45 71.25 1226 70.8023 1226 70.25C1226 69.6977 1226.45 69.25 1227 69.25H1230.83L1228.12 66.5381C1227.73 66.1476 1227.73 65.5136 1228.12 65.123C1228.51 64.7325 1229.15 64.7325 1229.54 65.123L1232.25 67.835V64C1232.25 63.4477 1232.7 63 1233.25 63Z" fill="url(#paint1_linear_52703_64)"/>
<path d="M1263.25 66C1263.8 66 1264.25 66.4477 1264.25 67V70.835L1266.96 68.123C1267.35 67.7326 1267.99 67.7325 1268.38 68.123C1268.77 68.5136 1268.77 69.1476 1268.38 69.5381L1265.67 72.25H1269.5C1270.05 72.25 1270.5 72.6977 1270.5 73.25C1270.5 73.8023 1270.05 74.25 1269.5 74.25H1265.67L1268.38 76.9619C1268.77 77.3524 1268.77 77.9864 1268.38 78.377C1267.99 78.7675 1267.35 78.7674 1266.96 78.377L1264.25 75.665V79.5C1264.25 80.0523 1263.8 80.5 1263.25 80.5C1262.7 80.5 1262.25 80.0523 1262.25 79.5V75.665L1259.54 78.377C1259.15 78.7675 1258.51 78.7675 1258.12 78.377C1257.73 77.9864 1257.73 77.3524 1258.12 76.9619L1260.83 74.25H1257C1256.45 74.25 1256 73.8023 1256 73.25C1256 72.6977 1256.45 72.25 1257 72.25H1260.83L1258.12 69.5381C1257.73 69.1476 1257.73 68.5136 1258.12 68.123C1258.51 67.7325 1259.15 67.7325 1259.54 68.123L1262.25 70.835V67C1262.25 66.4477 1262.7 66 1263.25 66Z" fill="url(#paint2_linear_52703_64)"/>
<path d="M1281.25 48C1281.8 48 1282.25 48.4477 1282.25 49V52.835L1284.96 50.123C1285.35 49.7326 1285.99 49.7325 1286.38 50.123C1286.77 50.5136 1286.77 51.1476 1286.38 51.5381L1283.67 54.25H1287.5C1288.05 54.25 1288.5 54.6977 1288.5 55.25C1288.5 55.8023 1288.05 56.25 1287.5 56.25H1283.67L1286.38 58.9619C1286.77 59.3524 1286.77 59.9864 1286.38 60.377C1285.99 60.7675 1285.35 60.7674 1284.96 60.377L1282.25 57.665V61.5C1282.25 62.0523 1281.8 62.5 1281.25 62.5C1280.7 62.5 1280.25 62.0523 1280.25 61.5V57.665L1277.54 60.377C1277.15 60.7675 1276.51 60.7675 1276.12 60.377C1275.73 59.9864 1275.73 59.3524 1276.12 58.9619L1278.83 56.25H1275C1274.45 56.25 1274 55.8023 1274 55.25C1274 54.6977 1274.45 54.25 1275 54.25H1278.83L1276.12 51.5381C1275.73 51.1476 1275.73 50.5136 1276.12 50.123C1276.51 49.7325 1277.15 49.7325 1277.54 50.123L1280.25 52.835V49C1280.25 48.4477 1280.7 48 1281.25 48Z" fill="url(#paint3_linear_52703_64)"/>
<path d="M1315.25 39C1315.8 39 1316.25 39.4477 1316.25 40V43.835L1318.96 41.123C1319.35 40.7326 1319.99 40.7325 1320.38 41.123C1320.77 41.5136 1320.77 42.1476 1320.38 42.5381L1317.67 45.25H1321.5C1322.05 45.25 1322.5 45.6977 1322.5 46.25C1322.5 46.8023 1322.05 47.25 1321.5 47.25H1317.67L1320.38 49.9619C1320.77 50.3524 1320.77 50.9864 1320.38 51.377C1319.99 51.7675 1319.35 51.7674 1318.96 51.377L1316.25 48.665V52.5C1316.25 53.0523 1315.8 53.5 1315.25 53.5C1314.7 53.5 1314.25 53.0523 1314.25 52.5V48.665L1311.54 51.377C1311.15 51.7675 1310.51 51.7675 1310.12 51.377C1309.73 50.9864 1309.73 50.3524 1310.12 49.9619L1312.83 47.25H1309C1308.45 47.25 1308 46.8023 1308 46.25C1308 45.6977 1308.45 45.25 1309 45.25H1312.83L1310.12 42.5381C1309.73 42.1476 1309.73 41.5136 1310.12 41.123C1310.51 40.7325 1311.15 40.7325 1311.54 41.123L1314.25 43.835V40C1314.25 39.4477 1314.7 39 1315.25 39Z" fill="url(#paint4_linear_52703_64)"/>
<path d="M1310.25 63C1310.8 63 1311.25 63.4477 1311.25 64V67.835L1313.96 65.123C1314.35 64.7326 1314.99 64.7325 1315.38 65.123C1315.77 65.5136 1315.77 66.1476 1315.38 66.5381L1312.67 69.25H1316.5C1317.05 69.25 1317.5 69.6977 1317.5 70.25C1317.5 70.8023 1317.05 71.25 1316.5 71.25H1312.67L1315.38 73.9619C1315.77 74.3524 1315.77 74.9864 1315.38 75.377C1314.99 75.7675 1314.35 75.7674 1313.96 75.377L1311.25 72.665V76.5C1311.25 77.0523 1310.8 77.5 1310.25 77.5C1309.7 77.5 1309.25 77.0523 1309.25 76.5V72.665L1306.54 75.377C1306.15 75.7675 1305.51 75.7675 1305.12 75.377C1304.73 74.9864 1304.73 74.3524 1305.12 73.9619L1307.83 71.25H1304C1303.45 71.25 1303 70.8023 1303 70.25C1303 69.6977 1303.45 69.25 1304 69.25H1307.83L1305.12 66.5381C1304.73 66.1476 1304.73 65.5136 1305.12 65.123C1305.51 64.7325 1306.15 64.7325 1306.54 65.123L1309.25 67.835V64C1309.25 63.4477 1309.7 63 1310.25 63Z" fill="url(#paint5_linear_52703_64)"/>
<path d="M1342.25 51C1342.8 51 1343.25 51.4477 1343.25 52V55.835L1345.96 53.123C1346.35 52.7326 1346.99 52.7325 1347.38 53.123C1347.77 53.5136 1347.77 54.1476 1347.38 54.5381L1344.67 57.25H1348.5C1349.05 57.25 1349.5 57.6977 1349.5 58.25C1349.5 58.8023 1349.05 59.25 1348.5 59.25H1344.67L1347.38 61.9619C1347.77 62.3524 1347.77 62.9864 1347.38 63.377C1346.99 63.7675 1346.35 63.7674 1345.96 63.377L1343.25 60.665V64.5C1343.25 65.0523 1342.8 65.5 1342.25 65.5C1341.7 65.5 1341.25 65.0523 1341.25 64.5V60.665L1338.54 63.377C1338.15 63.7675 1337.51 63.7675 1337.12 63.377C1336.73 62.9864 1336.73 62.3524 1337.12 61.9619L1339.83 59.25H1336C1335.45 59.25 1335 58.8023 1335 58.25C1335 57.6977 1335.45 57.25 1336 57.25H1339.83L1337.12 54.5381C1336.73 54.1476 1336.73 53.5136 1337.12 53.123C1337.51 52.7325 1338.15 52.7325 1338.54 53.123L1341.25 55.835V52C1341.25 51.4477 1341.7 51 1342.25 51Z" fill="url(#paint6_linear_52703_64)"/>
<path d="M1286.73 -58C1302.81 -57.9999 1317.09 -50.2472 1326.02 -38.2744C1329.89 -39.5119 1334 -40.1816 1338.27 -40.1816C1360.41 -40.1816 1378.36 -22.2324 1378.36 -0.0908203C1378.36 21.7047 1360.97 39.4384 1339.31 39.9873L1338.27 40H1235.18V39.7393C1221.52 37.8768 1211 26.1686 1211 12C1211 -3.20401 1223.12 -15.5775 1238.22 -15.9893C1241.61 -39.7405 1262.04 -58 1286.73 -58Z" fill="#1F4F72"/>
</g>
<defs>
<linearGradient id="paint0_linear_52703_64" x1="1249.25" y1="34" x2="1249.25" y2="53.5" gradientUnits="userSpaceOnUse">
<stop stop-color="white" stop-opacity="0"/>
<stop offset="1" stop-color="white"/>
</linearGradient>
<linearGradient id="paint1_linear_52703_64" x1="1233.25" y1="58" x2="1233.25" y2="77.5" gradientUnits="userSpaceOnUse">
<stop stop-color="white" stop-opacity="0"/>
<stop offset="1" stop-color="white"/>
</linearGradient>
<linearGradient id="paint2_linear_52703_64" x1="1263.25" y1="61" x2="1263.25" y2="80.5" gradientUnits="userSpaceOnUse">
<stop stop-color="white" stop-opacity="0"/>
<stop offset="1" stop-color="white"/>
</linearGradient>
<linearGradient id="paint3_linear_52703_64" x1="1281.25" y1="43" x2="1281.25" y2="62.5" gradientUnits="userSpaceOnUse">
<stop stop-color="white" stop-opacity="0"/>
<stop offset="1" stop-color="white"/>
</linearGradient>
<linearGradient id="paint4_linear_52703_64" x1="1315.25" y1="34" x2="1315.25" y2="53.5" gradientUnits="userSpaceOnUse">
<stop stop-color="white" stop-opacity="0"/>
<stop offset="1" stop-color="white"/>
</linearGradient>
<linearGradient id="paint5_linear_52703_64" x1="1310.25" y1="58" x2="1310.25" y2="77.5" gradientUnits="userSpaceOnUse">
<stop stop-color="white" stop-opacity="0"/>
<stop offset="1" stop-color="white"/>
</linearGradient>
<linearGradient id="paint6_linear_52703_64" x1="1342.25" y1="46" x2="1342.25" y2="65.5" gradientUnits="userSpaceOnUse">
<stop stop-color="white" stop-opacity="0"/>
<stop offset="1" stop-color="white"/>
</linearGradient>
</defs>
</svg>
